# xmcd CD database file
#
# Track frame offsets:
#	150
#	33601
#	55724
#	66606
#	95934
#	115140
#	138698
#	164739
#	179520
#	192257
#
# Disc length: 2931 seconds
#
# Revision: 3
# Processed by: cddbd v1.5.2PL0 Copyright (c) Steve Scherf et al.
# Submitted via: CDex 1.81
#
DISCID=a10b710a
DTITLE=Stefano Bollani Trio - Volare
DYEAR=2002
DGENRE=Jazz
TTITLE0=In Cerca Di Te
TTITLE1=Volare
TTITLE2=Tema Da La Dolce Vita
TTITLE3=Averti Tra Le Branccia
TTITLE4=Angela
TTITLE5=Anema E Core
TTITLE6=Azzurro
TTITLE7=E Lucean Le Stelle
TTITLE8=Te Vojo Bene Assaje
TTITLE9=Arrivederci
EXTD=YEAR: 2002
EXTT0=
EXTT1=
EXTT2=
EXTT3=
EXTT4=
EXTT5=
EXTT6=
EXTT7=
EXTT8=
EXTT9=
PLAYORDER=
